<svg width="371" height="321" viewBox="0 0 371 321" xmlns="http://www.w3.org/2000/svg"><title>Slovenia Ruby User Group logo</title><path d="M288.914 117.108L266.69 92.106l26.576-25.437 51.863 50.377-56.216.06zm-72.988 142.246l70.492-124.198-.08-.047 41.736-.046-112.148 124.29zM87.994 135.322l-.336.185 69.037 126.117L42.492 135.37l45.502-.048zM77.627 66.337L107.45 91.83l-21.524 25.497-60.858.064 52.56-51.053zm30.437 68.963l157.67-.168-80.306 141.492L108.064 135.3zm77.182-107.72l79.31 89.217-154.632.004 75.322-89.22zm184.988 88.762l-76.877-74.68-38.634 36.983-69.83-78.55-65.833 77.98-42.208-36.08L.316 116.342l10.02 10.315 175.006 193.465 172.28-190.936.07.067 12.542-12.91z" fill="#BB3331" fill-rule="evenodd"/></svg>